# xmcd
#
# Track frame offsets:
#	150
#	15350
#	33408
#	50874
#	67957
#	78686
#	94710
#	110809
#	128100
#	141402
#	156830
#	170540
#	184735
#	197149
#	214520
#	226540
#	242980
#	256890
#	271913
#	289077
#	305028
#
# Disc length: 4281 seconds
#
# Revision: 2
# Processed by: cddbd v1.5.1PL0 Copyright (c) Steve Scherf et al.
# Submitted via: audiograbber 1.83.01
#
DISCID=3010b715
DTITLE=Various Artist - Hott Country 042
DYEAR=1900
DGENRE=
TTITLE0=Shania Twain - You've Got A Way
TTITLE1=Jim Brickman and Pam Tillis - What We Believe
TTITLE2=Dixie Chicks - Ready To Run
TTITLE3=Chris Cummings - The Wild WIld West ( Calgary Stampede Song)
TTITLE4=Julie Reeves - Trouble Is A Woman
TTITLE5=T. Graham Brown - Never In A Million Years
TTITLE6=Sons Of The Desert - Albuquerque
TTITLE7=Bryan White - You're Still Beautifull To Me
TTITLE8=James Prosser - Angels Don't Fly
TTITLE9=Mindy McCready - One In A Million
TTITLE10=Shana Petrone - This Time
TTITLE11=Aaron Tippin - Her
TTITLE12=Gil Grand - I Already Fell (Remix)
TTITLE13=Brady Seals - The Best Is Yet To Come
TTITLE14=Deryl Dodd - John Roland Wood
TTITLE15=Prairie Oyster - Blue Melody
TTITLE16=Ricochet - Seven Bridges Road
TTITLE17=Montgomery Gentry - Lonely And Gone
TTITLE18=Rodney Foster - Godspeed (Sweet Dreams)
TTITLE19=Trio - After The Goldrush
TTITLE20=L.J. Daylee - I Saved The Best For Last
EXTD=
EXTT0=
EXTT1=
EXTT2=
EXTT3=
EXTT4=
EXTT5=
EXTT6=
EXTT7=
EXTT8=
EXTT9=
EXTT10=
EXTT11=
EXTT12=
EXTT13=
EXTT14=
EXTT15=
EXTT16=
EXTT17=
EXTT18=
EXTT19=
EXTT20=
PLAYORDER=
